<?xml version="1.0" encoding="UTF-8"?>
<svg version="1.1" xmlns="http://www.w3.org/2000/svg" width="2000" height="676">
<path d="M0 0 C24.75 0 49.5 0 75 0 C73 5 73 5 71.37890625 7.8828125 C60.69070992 26.96066832 59.94871554 53.03053787 65 74 C66.45482798 77.49158715 67.38522983 78.6213238 70.59375 80.59765625 C74.56102685 82.23097321 78.02740479 82.49693331 82.25 82.4375 C83.00216797 82.42992676 83.75433594 82.42235352 84.52929688 82.41455078 C94.62424255 82.11674554 102.03422692 77.96344761 110 72 C110.65613281 71.52175781 111.31226562 71.04351562 111.98828125 70.55078125 C127.50573514 58.20523177 136.77680382 37.15557729 140 18 C140.64755351 11.2006882 139.91482791 6.70189767 138 0 C157.8 0 177.6 0 198 0 C195.36 5.28 192.72 10.56 190 16 C188.28451052 20.01195141 186.61282518 24.01192249 185 28.0625 C174.62870763 53.39819926 160.65018696 74.04658466 139 91 C138.26652344 91.58652344 137.53304687 92.17304688 136.77734375 92.77734375 C135 94 135 94 133 94 C139.23402784 160.61262315 155.91367692 239.56881363 209 286 C209.66 286.33 210.32 286.66 211 287 C212.5795028 271.6647981 213.20870376 256.40267268 213.5 241 C214.92006894 169.40157388 229.91896854 96.83835835 276 40 C276.73734375 39.07058594 277.4746875 38.14117187 278.234375 37.18359375 C283.85765137 30.17443898 289.87813391 23.56931812 296 17 C297.63438358 15.24324821 299.2678016 13.48562669 300.89916992 11.72607422 C301.9403213 10.60346628 302.98335462 9.4825998 304.02856445 8.36376953 C306.8926265 5.29203792 306.8926265 5.29203792 309.28120422 1.8526001 C311 0 311 0 313.71452332 -0.48101807 C314.80928482 -0.47213562 315.90404633 -0.46325317 317.03198242 -0.45410156 C318.89357246 -0.45364838 318.89357246 -0.45364838 320.79277039 -0.45318604 C322.14700968 -0.43275953 323.50124245 -0.41189555 324.85546875 -0.390625 C326.24122807 -0.38316337 327.62699796 -0.37747007 329.01277161 -0.37347412 C332.65775759 -0.35821123 336.30210462 -0.31892501 339.94683838 -0.2746582 C343.66694495 -0.23371889 347.3871549 -0.21546605 351.10742188 -0.1953125 C358.40523901 -0.15243033 365.70252994 -0.0841724 373 0 C372.36771484 1.22976563 372.36771484 1.22976563 371.72265625 2.484375 C371.17480469 3.56203125 370.62695312 4.6396875 370.0625 5.75 C369.51722656 6.81734375 368.97195313 7.8846875 368.41015625 8.984375 C360.73108145 25.40610836 367.00230708 49.57413247 369.51268768 66.63922882 C369.81808403 68.72564925 370.11773296 70.81281996 370.41558838 72.90032959 C371.8960545 83.27413822 373.43230371 93.63903535 375 104 C375.11016701 104.72885155 375.22033401 105.45770309 375.33383942 106.20864105 C385.32433765 200.1627953 385.32433765 200.1627953 416.93359375 287.1015625 C418 289 418 289 418 291 C395.89 291 373.78 291 351 291 C351.33 288.03 351.66 285.06 352 282 C354.54649217 237.85611923 347.11354451 191.92456075 318.1875 157.25 C307.66006777 145.89978249 290.93455854 133.91059584 275.04980469 132.87255859 C266.7843135 132.21592312 266.7843135 132.21592312 259 134 C258.08646289 136.70744662 257.29303508 139.36747544 256.5625 142.125 C256.34295654 142.94105713 256.12341309 143.75711426 255.8972168 144.59790039 C243.52067485 191.41906517 245.90983879 242.09256593 265.8984375 286.375 C267 289 267 289 267 291 C251.37940051 291.28081582 235.75948652 291.49216684 220.13698673 291.62174606 C212.88237503 291.68352321 205.62933495 291.76767616 198.37573242 291.90527344 C192.05040534 292.02520418 185.72621651 292.10237143 179.39978403 292.12906194 C176.05115328 292.14466076 172.70834433 292.18740906 169.36027718 292.26876068 C147.31591439 292.78300675 147.31591439 292.78300675 142.40319824 288.39710999 C139.9630855 285.55342819 138.45277967 282.45083722 137 279 C136.15232648 277.58061047 135.29008565 276.1695293 134.3984375 274.77734375 C133.70924774 273.50525637 133.03468359 272.22513597 132.375 270.9375 C132.00584473 270.22327881 131.63668945 269.50905762 131.25634766 268.77319336 C112.63823049 231.74989821 108.43716988 188.77665961 104.078125 148.15234375 C103.98600739 147.29960876 103.89388977 146.44687378 103.79898071 145.56829834 C103.34736801 141.36026542 102.91657611 137.15172126 102.52148438 132.93798828 C102.44146179 132.12761612 102.36143921 131.31724396 102.2789917 130.48231506 C102.13004607 128.97216973 101.98967621 127.46113982 101.86016846 125.94920349 C101.23410146 119.75995202 99.66907518 115.0299563 95.6875 110.1875 C89.78835122 105.38586727 83.32503927 105.33597378 76 106 C72.00225974 106.83887009 68.85679577 107.83030513 66.35456848 111.24633789 C61.83114667 120.441868 62.71357089 132.0552619 62.76953125 142.0625 C62.77030538 143.49037658 62.77029101 144.91825377 62.76954651 146.34613037 C62.7704799 150.12054938 62.78454009 153.89480127 62.80236053 157.66917419 C62.81256244 160.01435352 62.81924994 162.35951716 62.82476807 164.70471191 C62.87920426 187.47724771 62.97321879 210.24696529 64 233 C64.04737305 234.07652832 64.04737305 234.07652832 64.09570312 235.17480469 C64.94210822 254.20232308 66.3643313 272.45732518 71 291 C49.88 291 28.76 291 7 291 C7.72942015 286.62347908 8.53422279 283.17701468 9.9375 279.0625 C13.8916641 266.42398745 14.43505818 253.08823016 15.109375 239.9375 C15.15124687 239.14653931 15.19311874 238.35557861 15.23625946 237.54064941 C16.15687395 219.8558915 16.31646554 202.19000187 16.25754547 184.48479843 C16.24983519 181.94572502 16.24581539 179.40666709 16.24261475 176.86758423 C16.19635021 145.64122855 15.45856385 114.47872214 14.13604736 83.2791748 C13.95997863 79.03535749 13.80096483 74.79097879 13.64196777 70.54649353 C13.49489584 66.68771533 13.33648357 62.82948128 13.17352295 58.97134399 C13.1016503 57.25009476 13.0326547 55.52872197 12.96710205 53.80722046 C12.20764305 34.30923758 9.5973775 17.2752795 0 0 Z M313 41 C296.6484968 57.83894639 283.95745597 77.73620709 272.875 98.3125 C272.49617676 99.01205811 272.11735352 99.71161621 271.72705078 100.43237305 C269.89102622 103.9268114 268.50202724 107.06745326 268 111 C269.010625 110.835 270.02125 110.67 271.0625 110.5 C292.61295763 107.9154654 310.95189289 112.7533576 328 126 C328.99 126.66 329.98 127.32 331 128 C329.62003238 117.56050093 327.81102773 107.25296146 325.8125 96.91796875 C325.50622119 95.3261246 325.19998834 93.73427161 324.89379883 92.14241028 C324.25758564 88.84013052 323.61841881 85.53843762 322.97753906 82.23706055 C322.15553854 77.99951319 321.34488887 73.75987492 320.53675842 69.51966381 C319.91121511 66.24757142 319.27792878 62.97701356 318.64242554 59.70684242 C318.33975419 58.14242502 318.03995713 56.57744872 317.74307251 55.01192284 C317.33035724 52.83984956 316.90684455 50.67015912 316.48046875 48.50073242 C316.12311646 46.64879524 316.12311646 46.64879524 315.75854492 44.75944519 C315.38306519 43.39351982 315.38306519 43.39351982 315 42 C314.34 41.67 313.68 41.34 313 41 Z " fill="#000000" transform="translate(2,380)"/>
<path d="M0 0 C24.75 0 49.5 0 75 0 C76.5675 6.27 78.135 12.54 79.75 19 C89.71466658 58.1588464 102.19456883 96.56484195 114.34507942 135.08698082 C115.01541677 137.21284484 115.68506253 139.33892574 116.354599 141.46504211 C118.21760608 147.37753869 120.08716257 153.28748909 121.99707031 159.18505859 C122.28450104 160.07742722 122.57193176 160.96979584 122.86807251 161.88920593 C123.37641637 163.46423776 123.8892908 165.03781932 124.40805054 166.60945129 C125.48672699 169.95953897 126 172.43099081 126 176 C126.66 176 127.32 176 128 176 C128.19465851 174.45886536 128.19465851 174.45886536 128.39324951 172.88659668 C128.93872868 169.39247914 129.69951485 166.19776305 130.70800781 162.81445312 C131.06136703 161.62003601 131.41472626 160.4256189 131.77879333 159.19500732 C132.17015879 157.89039802 132.56160536 156.58581304 132.953125 155.28125 C133.3655596 153.89362501 133.77753999 152.50586495 134.18910217 151.11798096 C135.07370041 148.13830071 135.961363 145.15955751 136.85147095 142.18151855 C138.26539439 137.45088468 139.67267209 132.71829047 141.07885742 127.98535156 C142.79829736 122.19953329 144.5192894 116.41418126 146.24220943 110.62939835 C149.43528389 99.90754135 152.61402092 89.18148968 155.78515625 78.453125 C156.01903172 77.66192261 156.25290718 76.87072021 156.49386978 76.05554199 C157.65207215 72.13710152 158.810048 68.21859417 159.96789551 64.30004883 C161.90148008 57.75643403 163.83672914 51.21331164 165.77218437 44.67024994 C166.32428033 42.80372895 166.87626341 40.93717458 167.42823792 39.07061768 C171.28062746 26.04563382 175.14129746 13.02312106 179 0 C203.75 0 228.5 0 254 0 C252.27658676 3.44682649 251.22457403 4.91177782 248.625 7.5 C236.1485441 21.48089341 237.97974401 46.42753273 237.24609375 63.9453125 C237.21380928 64.7101766 237.18152481 65.4750407 237.14826202 66.2630825 C236.89893192 72.21658514 236.66471025 78.170615 236.4375 84.125 C236.40355259 85.01241756 236.36960518 85.89983513 236.33462906 86.81414413 C235.15097947 118.07044424 234.69250775 149.30724087 234.68858719 180.58516693 C234.68751231 183.77596403 234.68281022 186.96673924 234.67745972 190.15753174 C232.93594036 239.48684496 232.93594036 239.48684496 243.23046875 287.03125 C244 289 244 289 244 291 C223.87 291 203.74 291 183 291 C184.65 285.72 186.3 280.44 188 275 C188.51803887 270.56218762 188.88944666 266.42951837 189 262 C189.04640625 260.96372467 189.0928125 259.92744934 189.140625 258.85977173 C189.28487564 255.60095312 189.39614171 252.34237541 189.5 249.08203125 C189.54033356 247.88350021 189.58066711 246.68496918 189.6222229 245.45011902 C189.75157268 241.57101624 189.87629066 237.69178653 190 233.8125 C190.04363033 232.45857585 190.08731156 231.10465333 190.13104248 229.75073242 C190.39086552 221.69081793 190.64290505 213.63068838 190.89001465 205.57037354 C190.98767162 202.40020698 191.08758387 199.23012344 191.18847656 196.06005859 C191.89002894 173.76995319 192.09840376 151.48827618 192.125 129.1875 C192.12767883 127.94524658 192.13035767 126.70299316 192.13311768 125.4230957 C192.16295371 107.25747321 191.74127771 89.14896176 191 71 C181.71361544 100.90266479 172.51470274 130.83072744 163.39923096 160.78588867 C154.79461086 189.06203488 146.15282323 217.32601028 137.40520859 245.55828857 C136.6945556 247.85222504 135.98438987 250.14631188 135.27432251 252.44042969 C134.16494441 256.02400782 133.05401654 259.60710183 131.94177628 263.18979263 C131.35020723 265.09594738 130.75965958 267.00241903 130.16915894 268.90890503 C127.8695739 276.30392999 125.47961491 283.66336265 123 291 C120.72706368 288.72706368 120.28550714 287.2978073 119.31445312 284.26147461 C118.99152786 283.26192245 118.6686026 282.2623703 118.33589172 281.23252869 C117.98785995 280.13356766 117.63982819 279.03460663 117.28125 277.90234375 C116.91206955 276.75290787 116.5428891 275.60347198 116.16252136 274.41920471 C115.14896779 271.25876217 114.1410563 268.09662158 113.13552475 264.93362427 C112.27899982 262.24335893 111.41744369 259.55471656 110.55580044 256.86608696 C106.25862573 243.45675074 102.00046462 230.03541824 97.79296875 216.59765625 C96.42508576 212.23158046 95.05666362 207.86567438 93.6875 203.5 C93.34379364 202.40364227 93.00008728 201.30728455 92.64596558 200.17770386 C81.1191902 163.47448455 68.90531337 126.98904058 56.80883789 90.47070312 C56.56733851 89.74155952 56.32583914 89.01241592 56.0770216 88.26117706 C54.39060395 83.17213991 52.69677377 78.08559309 51 73 C50.54042128 147.61510766 50.54042128 147.61510766 51.81143951 222.21331406 C51.87419082 224.2240712 51.93415344 226.23491474 51.99407959 228.24575806 C52.35510917 239.9578733 52.83136213 251.64134705 53.94921875 263.30859375 C54.02393402 264.09965515 54.09864929 264.89071655 54.17562866 265.70574951 C55.14745906 274.83993006 58.40009079 282.60021185 62 291 C44.18 291 26.36 291 8 291 C10 286 10 286 10.96484375 284.2109375 C24.97846034 257.7595327 19.36875051 214.37107397 19.31745148 185.2661705 C19.31243862 182.14933728 19.31095586 179.03251682 19.30999756 175.91567993 C19.29025428 145.65243649 18.75683929 115.42944221 17.625 85.1875 C17.59332859 84.32572018 17.56165718 83.46394035 17.52902603 82.57604599 C18.48581239 38.89990719 18.48581239 38.89990719 0 2 C0 1.34 0 0.68 0 0 Z " fill="#000000" transform="translate(1554,380)"/>
<path d="M0 0 C3.77693155 1.74557573 5.67062717 4.11439257 7.13037109 8.03930664 C8.35434292 12.74879019 8.35369766 17.46780188 8.4140625 22.30859375 C8.44311172 23.75867577 8.44311172 23.75867577 8.4727478 25.23805237 C8.53219191 28.30444713 8.57878769 31.37088016 8.625 34.4375 C8.66321217 36.52540636 8.70226576 38.6132975 8.7421875 40.70117188 C8.83786438 45.80065662 8.92202455 50.90021511 9 56 C9.57967529 56.11069824 10.15935059 56.22139648 10.7565918 56.33544922 C13.40124419 56.84349738 16.04435393 57.35917495 18.6875 57.875 C19.59951172 58.04902344 20.51152344 58.22304687 21.45117188 58.40234375 C25.82384542 59.26097783 29.93488387 60.10009309 34 62 C33.67 62.66 33.34 63.32 33 64 C32.030625 64.2475 31.06125 64.495 30.0625 64.75 C26.78972111 65.70583396 26.78972111 65.70583396 25.5625 68.6875 C24.74732051 73.48800145 25.47244038 77.41732114 27 82 C29.65827162 82.96213364 29.65827162 82.96213364 32.8125 83.5625 C41.97507602 85.53786657 41.97507602 85.53786657 44.27685547 88.8215332 C44.63666504 89.55718506 44.99647461 90.29283691 45.3671875 91.05078125 C45.77533691 91.88496582 46.18348633 92.71915039 46.60400391 93.57861328 C47.02343262 94.4807959 47.44286133 95.38297852 47.875 96.3125 C48.52927979 97.70057861 48.52927979 97.70057861 49.19677734 99.11669922 C53.66181809 108.91796786 59 121.0494712 59 132 C68.57 132 78.14 132 88 132 C83.00901961 121.90583089 83.00901961 121.90583089 79 117.5625 C77.24175917 115.22005136 76.99509091 114.20531549 77.06640625 111.22265625 C77.56695698 108.09717022 78.23430401 105.07071863 79 102 C79.37701917 100.2504339 79.752263 98.5004834 80.125 96.75 C80.41375 95.5125 80.7025 94.275 81 93 C85.22011605 94.55426186 87.52201948 97.67918357 90.1875 101.125 C90.66799805 101.74608643 91.14849609 102.36717285 91.64355469 103.00708008 C104.13003119 119.55186776 111.88289003 138.5268217 115 159 C115.13019531 159.77988281 115.26039063 160.55976563 115.39453125 161.36328125 C119.66820898 191.62091958 110.84533864 223.48407354 92.91845703 247.984375 C74.81367442 271.89557596 50.237132 288.14700911 21 295 C20.06027344 295.22558594 19.12054687 295.45117188 18.15234375 295.68359375 C-13.51619225 301.86385986 -46.63169928 294.47770567 -73.30859375 276.80859375 C-78.70142997 272.88844363 -83.73568761 268.58155734 -88.6875 264.125 C-89.46444214 263.42818115 -89.46444214 263.42818115 -90.25708008 262.71728516 C-92.66367581 260.49035909 -93.94462458 259.16612627 -95 256 C-91.01252782 254.94331987 -87.0109475 253.96322015 -83 253 C-81.86304688 252.66935547 -81.86304688 252.66935547 -80.703125 252.33203125 C-78.75 251.875 -78.75 251.875 -75 252 C-72.82582264 253.4554784 -71.07723687 255.10873473 -69.21484375 256.9453125 C-64.37788316 261.43251051 -58.48692886 265.54413653 -52 267 C-52.58007812 265.98164063 -53.16015625 264.96328125 -53.7578125 263.9140625 C-58.01402222 256.26858114 -61.75337246 248.69848322 -64.5 240.375 C-64.74250488 239.6423291 -64.98500977 238.9096582 -65.23486328 238.15478516 C-66.61147652 233.78466386 -67.39476532 229.55500713 -68 225 C-68.9286084 225.00523682 -69.8572168 225.01047363 -70.81396484 225.01586914 C-74.25423805 225.03289593 -77.69446659 225.04544273 -81.13476562 225.05493164 C-82.62468166 225.05996514 -84.11459274 225.06679242 -85.60449219 225.07543945 C-87.74415304 225.08754805 -89.88374868 225.09323807 -92.0234375 225.09765625 C-93.31169434 225.10289307 -94.59995117 225.10812988 -95.92724609 225.11352539 C-99 225 -99 225 -101 224 C-101.73022461 221.48730469 -101.73022461 221.48730469 -102.40234375 218.171875 C-102.65306641 216.97949219 -102.90378906 215.78710938 -103.16210938 214.55859375 C-103.67582653 212.03529791 -104.18885616 209.511862 -104.70117188 206.98828125 C-104.95318359 205.79074219 -105.20519531 204.59320313 -105.46484375 203.359375 C-105.687771 202.26077148 -105.91069824 201.16216797 -106.14038086 200.03027344 C-107.22712152 196.19936602 -108.56015683 193.05219309 -111.828125 190.6640625 C-114.64847896 189.80172406 -116.83003768 190.02738544 -119.75 190.375 C-120.73484375 190.48585937 -121.7196875 190.59671875 -122.734375 190.7109375 C-123.85585938 190.85402344 -123.85585938 190.85402344 -125 191 C-130.38871232 163.36668323 -121.3621174 132.1142372 -106 109 C-88.52693497 84.02099575 -62.09207584 63.72116502 -31.56103516 58.14233398 C-30.05436923 57.88142354 -28.54703084 57.6243682 -27.0390625 57.37109375 C-26.26151611 57.23731323 -25.48396973 57.10353271 -24.68286133 56.96569824 C-22.78915882 56.64037733 -20.89465975 56.31969876 -19 56 C-18.99120064 55.17767128 -18.99120064 55.17767128 -18.98222351 54.33872986 C-18.91808563 48.61163572 -18.83361435 42.88509294 -18.73754883 37.15844727 C-18.70437883 35.02375578 -18.67632242 32.88897827 -18.65356445 30.75415039 C-18.61987283 27.67817669 -18.56754897 24.60298574 -18.51171875 21.52734375 C-18.50532883 20.57915268 -18.4989389 19.63096161 -18.49235535 18.65403748 C-18.34351455 11.88350398 -17.4384999 6.88186351 -12.9375 1.5625 C-8.61254837 -0.73800619 -4.79199099 -0.87405916 0 0 Z M4 75 C4 93.81 4 112.62 4 132 C16.21 132 28.42 132 41 132 C40.27717943 126.21743542 39.48430928 121.7196961 37.4375 116.4375 C37.17428955 115.75276611 36.9110791 115.06803223 36.63989258 114.36254883 C30.52286944 98.92029842 22.25558825 83.06838873 7 75 C6.01 75 5.02 75 4 75 Z M-79 103 C-91.5563295 115.94875286 -91.5563295 115.94875286 -98 132 C-88.43 132 -78.86 132 -69 132 C-68.05125 128.473125 -67.1025 124.94625 -66.125 121.3125 C-62.90890916 109.85873051 -58.39108286 99.42882379 -52.92041016 88.88745117 C-51.87966586 86.8583031 -51.87966586 86.8583031 -51 84 C-59.67195804 84 -73.17267422 97.48721737 -79 103 Z M-55 149 C-58.35374969 178.41632835 -58.35374969 178.41632835 -54 208 C-40.8 208 -27.6 208 -14 208 C-14 188.53 -14 169.06 -14 149 C-27.53 149 -41.06 149 -55 149 Z M62 149 C62.165 151.784375 62.33 154.56875 62.5 157.4375 C63.41516125 174.36217265 62.81086816 191.0731272 62 208 C72.56 208 83.12 208 94 208 C97.46224818 195.16043399 97.46224818 195.16043399 99 182 C99.0515625 181.14019531 99.103125 180.28039062 99.15625 179.39453125 C99.45811126 170.27580583 99.16529629 157.33059257 95 149 C84.11 149 73.22 149 62 149 Z M-50 225 C-47.55701422 242.10090045 -38.12188103 261.9489668 -24.56640625 272.98046875 C-20.95999627 275.4735699 -18.30148751 276.92462812 -14 278 C-14 260.51 -14 243.02 -14 225 C-25.88 225 -37.76 225 -50 225 Z M4 225 C4 242.49 4 259.98 4 278 C18.86111596 273.04629468 26.19157103 260.75411534 32.9453125 247.34765625 C38.16987083 236.60434653 38.16987083 236.60434653 40 225 C28.12 225 16.24 225 4 225 Z " fill="#000000" transform="translate(1010,14)"/>
<path d="M0 0 C19.8 0 39.6 0 60 0 C62.68125 5.8575 65.3625 11.715 68.125 17.75 C75.35166385 33.42042317 82.8296647 48.94815927 90.5625 64.375 C91.01232239 65.27359741 91.46214478 66.17219482 91.92559814 67.09802246 C100.30402429 83.81349413 108.99339618 100.35936553 117.875 116.8125 C118.46595459 117.90868652 119.05690918 119.00487305 119.66577148 120.13427734 C123.93137671 128.0392181 128.2233058 135.92956731 132.53076172 143.81176758 C136.74667999 151.527443 140.93441955 159.258185 145.1184082 166.99121094 C149.4960258 175.07846097 153.89573319 183.15351818 158.30664062 191.22265625 C158.77779297 192.08503906 159.24894531 192.94742188 159.734375 193.8359375 C160.14913086 194.59438965 160.56388672 195.3528418 160.99121094 196.13427734 C161.68189389 197.41167307 162.35057213 198.70114426 163 200 C164.51280068 111.58513148 164.51280068 111.58513148 154.5625 23.9375 C154.29119263 22.53008545 154.29119263 22.53008545 154.0144043 21.09423828 C152.40982584 13.55606954 149.85209838 7.41545578 147 0 C166.14 0 185.28 0 205 0 C203 9 203 9 202.25390625 12.02734375 C198.22044675 29.00433432 197.0542806 46.63591442 195.875 64 C195.79950928 65.11117187 195.72401855 66.22234375 195.64624023 67.3671875 C195.40259753 71.24349627 195.19845786 75.12118662 195 79 C194.95815991 79.79303905 194.91631983 80.58607811 194.87321186 81.40314865 C193.79133506 102.66280383 193.86784433 123.91477121 193.89860606 145.19505358 C193.90494773 150.33856093 193.9054518 155.48206917 193.90663147 160.62557983 C193.90971342 170.32161134 193.91788358 180.01763128 193.92798096 189.71365774 C193.9392407 200.77088064 193.94467715 211.82810416 193.94967639 222.88533139 C193.9600696 245.5902275 193.9778134 268.29511261 194 291 C183.44 291 172.88 291 162 291 C154.50272527 277.08753142 147.01483946 263.17047271 139.55636597 249.23718262 C134.47869219 239.75222738 129.38397089 230.27656541 124.27832031 220.80664062 C121.22273097 215.1366525 118.17514127 209.4625359 115.140625 203.78125 C109.07229838 192.42166696 102.98648183 181.0762998 96.69921875 169.8359375 C93.23109313 163.63458274 89.8054039 157.40976586 86.375 151.1875 C85.68939325 149.94432408 85.00376489 148.70116007 84.31811523 147.45800781 C81.85761684 142.99666655 79.39768599 138.53501241 76.93774414 134.07336426 C74.8351587 130.25991786 72.73233002 126.44660576 70.62921143 122.63345337 C69.67103681 120.89597931 68.71319553 119.15832143 67.75537109 117.4206543 C64.10018376 110.79314344 60.43210628 104.17294955 56.75537109 97.55737305 C56.29607712 96.73080956 55.83678314 95.90424606 55.36357117 95.05263519 C54.2424526 93.0350502 53.12126076 91.01750597 52 89 C51.59569763 156.81844719 51.59569763 156.81844719 52.81143951 224.62074661 C52.87428583 226.60248023 52.93419959 228.58430613 52.99407959 230.56613159 C53.34406402 241.7945139 53.73867948 253.01009484 54.91015625 264.1875 C54.9796347 264.87155914 55.04911316 265.55561829 55.12069702 266.26040649 C55.98556643 273.54515825 58.47567748 280.15706299 61 287 C61.33 288.32 61.66 289.64 62 291 C44.84 291 27.68 291 10 291 C10.99 288.03 11.98 285.06 13 282 C16.14353277 271.85686759 17.16135099 261.53697062 18 251 C18.08367828 249.95663483 18.16735657 248.91326965 18.25357056 247.83828735 C19.13849588 235.44902199 19.18071715 223.08063725 19.203125 210.6640625 C19.21005593 208.28620892 19.21705108 205.90835553 19.22410583 203.53050232 C19.24342313 195.89533323 19.24802952 188.26019061 19.25 180.625 C19.25073643 179.32972759 19.25147285 178.03445518 19.2522316 176.6999321 C19.26745774 143.89936385 19.14827569 111.11976355 17.78239441 78.34368134 C17.68874199 76.09235632 17.59879147 73.84090453 17.50915527 71.5894165 C16.30998329 33.47225497 16.30998329 33.47225497 0 0 Z " fill="#000000" transform="translate(437,380)"/>
<path d="M0 0 C19.8 0 39.6 0 60 0 C62.475 5.445 64.95 10.89 67.5 16.5 C74.87056697 32.56683548 82.58049489 48.4469706 90.5 64.25 C90.99943115 65.24781494 91.4988623 66.24562988 92.01342773 67.27368164 C98.52313722 80.26419712 105.17602818 93.17186771 112 106 C112.32204407 106.60646362 112.64408813 107.21292725 112.97589111 107.83776855 C114.91114649 111.48074003 116.85814768 115.11724213 118.8125 118.75 C119.40015137 119.8428833 119.98780273 120.9357666 120.59326172 122.06176758 C124.51380749 129.32322265 128.53509446 136.52031604 132.625 143.6875 C137.39384162 152.04736283 141.95550974 160.49158112 146.34033203 169.05932617 C151.69282408 179.48015097 157.37002986 189.72735335 163 200 C167.80366619 98.06940989 167.80366619 98.06940989 147 0 C166.14 0 185.28 0 205 0 C203.68 5.61 202.36 11.22 201 17 C200.3903603 20.28158796 199.81509712 23.50772231 199.3515625 26.8046875 C199.23189117 27.63064423 199.11221985 28.45660095 198.98892212 29.30758667 C197.82058196 37.70980446 197.12050952 46.13654709 196.546875 54.59765625 C196.37636603 57.10491313 196.19305812 59.61098084 196.0078125 62.1171875 C194.03032028 89.54231854 193.85910226 116.91668298 193.89860606 144.39698267 C193.9049471 149.56851725 193.90545176 154.74005271 193.90663147 159.91159058 C193.9097136 169.660746 193.91788402 179.40988992 193.92798096 189.15904033 C193.93924013 200.27672159 193.94467701 211.39440346 193.94967639 222.51208901 C193.96007001 245.34139922 193.97781414 268.17069847 194 291 C183.44 291 172.88 291 162 291 C153.55997922 275.57872746 145.2155087 260.10891619 136.92773438 244.60546875 C131.89969591 235.2003035 126.86274322 225.79990622 121.82324219 216.40087891 C120.62812271 214.17163221 119.43344531 211.94214844 118.23925781 209.71240234 C110.88531507 195.98545734 103.43876879 182.31379932 95.89746094 168.68920898 C91.65725889 161.02524727 87.46655273 153.33605525 83.3125 145.625 C78.65399857 136.9841388 73.89084612 128.40931786 69.01489258 119.88916016 C63.1903959 109.6774944 57.61313248 99.32880823 52 89 C51.56756653 160.07163582 51.56756653 160.07163582 52.875 231.125 C52.91429626 232.38168488 52.95359253 233.63836975 52.99407959 234.93313599 C53.55375217 252.23824085 54.31510983 268.50049455 60 285 C60.66 286.98 61.32 288.96 62 291 C44.84 291 27.68 291 10 291 C13 281 13 281 13.89071655 278.15551758 C16.19179005 270.43803678 17.01989236 262.69147654 17.6640625 254.6875 C17.72687031 253.93002472 17.78967812 253.17254944 17.85438919 252.39212036 C19.69290923 229.53332304 19.46314758 206.59538071 19.38631821 183.67982483 C19.37487149 179.95821838 19.36876233 176.23663515 19.36392212 172.51501465 C19.3152048 140.74245951 18.94683349 108.99898181 17.6875 77.25 C17.65792961 76.47825439 17.62835922 75.70650879 17.59789276 74.91137695 C18.0207447 36.94183855 18.0207447 36.94183855 2.25 4.25 C1.5075 3.5075 0.765 2.765 0 2 C0 1.34 0 0.68 0 0 Z " fill="#000000" transform="translate(1189,380)"/>
<path d="M0 0 C1.612164 0.01665459 1.612164 0.01665459 3.25689697 0.03364563 C5.08834259 0.03421211 5.08834259 0.03421211 6.95678711 0.03479004 C8.2704425 0.06059647 9.5840979 0.08640289 10.93756104 0.11299133 C12.29946596 0.12232147 13.6613877 0.12943664 15.02331543 0.13442993 C18.60106055 0.15348485 22.1777843 0.20256992 25.75512695 0.25794983 C29.40824568 0.30917647 33.06153011 0.33195109 36.71490479 0.35713196 C43.87812992 0.41069246 51.04051465 0.49598412 58.20318604 0.60127258 C57.24313295 3.02734251 56.28593339 5.42672251 55.16802979 7.78486633 C49.69716649 19.78748276 51.14323762 32.5199713 52.82037354 45.25361633 C53.00639847 46.73838295 53.19167247 48.22324382 53.37625122 49.70819092 C55.35678537 65.44593622 57.62551863 81.14546435 59.97837067 96.83128357 C60.33570933 99.21393619 60.69158871 101.59680393 61.04736328 103.97969055 C70.85336256 199.01945201 70.85336256 199.01945201 102.89849854 287.37080383 C104.20318604 289.60127258 104.20318604 289.60127258 104.20318604 291.60127258 C82.09318604 291.60127258 59.98318604 291.60127258 37.20318604 291.60127258 C37.53318604 288.30127258 37.86318604 285.00127258 38.20318604 281.60127258 C40.68232348 239.82866158 33.93161875 194.9209887 7.20318604 161.60127258 C6.41943604 160.54939758 5.63568604 159.49752258 4.82818604 158.41377258 C-5.87144361 146.94988368 -22.68400003 134.33011071 -38.99505615 133.48774719 C-39.77010498 133.49298401 -40.54515381 133.49822083 -41.34368896 133.50361633 C-42.1880249 133.50683899 -43.03236084 133.51006165 -43.90228271 133.51338196 C-45.21132568 133.52595032 -45.21132568 133.52595032 -46.54681396 133.53877258 C-47.43497803 133.5432843 -48.32314209 133.54779602 -49.23822021 133.55244446 C-51.42448725 133.56419858 -53.61061575 133.5806301 -55.79681396 133.60127258 C-55.91218506 134.1955304 -56.02755615 134.78978821 -56.14642334 135.40205383 C-57.03971911 139.94267979 -57.97831411 144.46620518 -59.01556396 148.97627258 C-69.87690962 196.29861611 -66.72130231 242.76983591 -47.61956787 287.44429016 C-46.79681396 289.60127258 -46.79681396 289.60127258 -46.79681396 291.60127258 C-65.93681396 291.60127258 -85.07681396 291.60127258 -104.79681396 291.60127258 C-103.80681396 285.99127258 -102.81681396 280.38127258 -101.79681396 274.60127258 C-100.87028945 265.08532082 -100.6509056 255.61406831 -100.5067749 246.06269836 C-99.41942645 174.64968444 -85.57812357 103.74674939 -41.79681396 45.60127258 C-41.36401123 45.02425598 -40.9312085 44.44723938 -40.48529053 43.85273743 C-34.21534429 35.54700514 -27.49577069 27.80302154 -20.3480835 20.24531555 C-17.64565803 17.38127195 -14.9715036 14.49119083 -12.29681396 11.60127258 C-11.80447266 11.07332092 -11.31213135 10.54536926 -10.80487061 10.00141907 C-8.69680432 7.72814269 -6.74973218 5.53147918 -5.01306152 2.95706177 C-2.79681396 0.60127258 -2.79681396 0.60127258 0 0 Z M-0.79681396 41.60127258 C-20.19205426 61.99885088 -34.20303643 85.58581898 -46.79681396 110.60127258 C-43.38034601 111.74009524 -42.24673541 111.32061791 -38.79681396 110.60127258 C-17.15596659 109.51544243 0.26568096 114.95932408 17.20318604 128.60127258 C15.74944892 118.56000336 13.93859324 108.611059 12.01568604 98.65205383 C11.86556061 97.87212759 11.71543518 97.09220135 11.5607605 96.28864098 C10.77013655 92.18146547 9.97669349 88.07484721 9.1807251 83.96870422 C8.36002355 79.73210695 7.54894847 75.49372414 6.73994446 71.25487995 C6.11372916 67.98287752 5.48063597 64.71223383 4.84561157 61.44193077 C4.54321879 59.87828628 4.2434182 58.31413818 3.94625854 56.74949074 C3.53266193 54.57530996 3.10940536 52.40322803 2.68365479 50.23139954 C2.44541992 48.99597916 2.20718506 47.76055878 1.96173096 46.48770142 C1.43508985 43.49706803 1.43508985 43.49706803 -0.79681396 41.60127258 Z " fill="#000000" transform="translate(1067.7968139648438,379.3987274169922)"/>
<path d="M0 0 C18.78465438 -0.14023752 37.56920236 -0.24600393 56.35427189 -0.31087303 C65.07677281 -0.34179518 73.79894825 -0.38394396 82.52124023 -0.45263672 C90.12469641 -0.51248944 97.72791683 -0.55116109 105.33160204 -0.56453097 C109.35685854 -0.57234497 113.38144069 -0.59067408 117.40648079 -0.63438034 C121.19791642 -0.67521505 124.98840227 -0.68764772 128.78003693 -0.67864609 C130.16878617 -0.68029195 131.55756834 -0.69216378 132.94612694 -0.71523285 C144.7300629 -0.90134569 144.7300629 -0.90134569 149.26560974 2.88143921 C160.93643618 15.01675686 162.55952522 34.31074954 162.41113281 50.27392578 C161.95548166 66.04451834 161.95548166 66.04451834 157 71 C156.73372803 70.48203857 156.46745605 69.96407715 156.19311523 69.43041992 C141.90390166 40.64077698 141.90390166 40.64077698 115.6875 23.625 C107.3429293 21.00664903 99.3694602 20.78740209 90.6875 20.75 C88.90956055 20.7190625 88.90956055 20.7190625 87.09570312 20.6875 C75.78620766 20.61319701 75.78620766 20.61319701 66.0625 25.75 C62.53975956 33.20992093 62.65977098 40.71094352 62.68432617 48.76049805 C62.68748722 50.92873397 62.66397624 53.0956039 62.63867188 55.26367188 C62.54762438 67.545756 62.54762438 67.545756 68.6875 77.875 C76.98014718 83.1948114 86.58925342 82.3416345 96.09375 82.4140625 C97.65174356 82.43279733 99.20972722 82.45237243 100.7677002 82.4727478 C104.8446262 82.52383073 108.92158501 82.56358313 112.99865723 82.60089111 C117.1684566 82.64108122 121.33812229 82.69210469 125.5078125 82.7421875 C133.6717833 82.83866407 141.83582088 82.92315819 150 83 C148.87572225 90.60200892 145.61124642 96.68913452 139.88671875 101.9375 C130.2969298 108.75084916 119.50903184 110.44041598 107.96923828 108.69238281 C105.07818121 108.18536659 102.19661986 107.63350454 99.31396484 107.08105469 C89.4185853 105.24369259 79.34276105 104.64236891 70 109 C65.7843313 112.24957796 64.27118517 114.89677933 63 120 C62.70497585 123.99803483 62.71656731 127.98617117 62.7253418 131.99365234 C62.7176754 133.79984039 62.7176754 133.79984039 62.70985413 135.64251709 C62.69835433 138.93656671 62.69588251 142.23045985 62.69841743 145.52452421 C62.69949128 148.28701139 62.69459228 151.0494757 62.689812 153.81195796 C62.67872473 160.34356894 62.67827246 166.87512244 62.68432617 173.40673828 C62.69034103 180.10605869 62.6781169 186.80516775 62.6567561 193.50445211 C62.63901979 199.28313276 62.63315822 205.06174694 62.63639385 210.84045374 C62.63819071 214.27936902 62.63573469 217.71813416 62.62167931 221.15702438 C61.14584418 245.51780471 61.14584418 245.51780471 70 267 C79.13733903 273.09155936 97.32502598 271.11060595 107.64453125 269.31640625 C122.62254562 266.11211934 134.99392805 259.54602015 143.5 246.6875 C148.64553589 238.60420912 152.32847275 229.82367038 156 221 C156.99 221 157.98 221 159 221 C166.17593974 236.91186639 164.67434842 258.67967218 159.125 275 C156.7934193 280.88076465 153.80761458 285.81272279 149 290 C145.66636776 291.11121075 143.19162295 291.12305796 139.6789093 291.12025452 C138.71338781 291.12153615 138.71338781 291.12153615 137.72836083 291.12284368 C135.56798387 291.12449294 133.40768428 291.11898617 131.24731445 291.11352539 C129.70009361 291.11324337 128.15287262 291.11340154 126.60565186 291.1139679 C122.40140645 291.1142553 118.19718947 291.10836769 113.99295068 291.10139394 C109.60070454 291.09515101 105.20845778 291.09455585 100.81620789 291.09336853 C92.49709078 291.09025799 84.17798678 291.08204833 75.85887545 291.07201904 C66.38861301 291.06084931 56.91834995 291.05534528 47.44808257 291.05032361 C27.96538094 291.0398655 8.48269152 291.02227141 -11 291 C-8.20167448 288.13638267 -5.48023512 285.87728741 -2.125 283.6875 C8.15882405 276.51449498 12.42668358 267.78216471 15.0512085 255.52030945 C16.59701029 246.75359126 16.2788992 237.87407366 16.25878906 229.00317383 C16.26150287 226.98812738 16.26506599 224.97308193 16.26940918 222.95803833 C16.27849197 217.50941713 16.27500513 212.06087207 16.26865101 206.61224961 C16.26356621 200.89023534 16.26828966 195.16822732 16.27142334 189.44621277 C16.27505724 179.83384031 16.27028054 170.22149864 16.26074219 160.60913086 C16.24987426 149.52962832 16.25337347 138.45019949 16.264395 127.37069875 C16.27350283 117.82974745 16.27473565 108.2888182 16.26951766 98.74786395 C16.26641513 93.06223672 16.26594074 87.376644 16.27259064 81.69101906 C16.27841394 76.33850956 16.27427699 70.98609398 16.26280212 65.63359451 C16.26018132 63.68105029 16.26087586 61.72849802 16.26532745 59.77595711 C16.67236486 30.93500888 16.67236486 30.93500888 4 6 C3.21625 5.21625 2.4325 4.4325 1.625 3.625 C1.08875 3.08875 0.5525 2.5525 0 2 C0 1.34 0 0.68 0 0 Z " fill="#000000" transform="translate(1835,380)"/>
<path d="M0 0 C25.08 0 50.16 0 76 0 C74 6 74 6 73.20556641 8.1328125 C70.93717289 14.33177135 70.0882359 20.4593026 69.375 27 C69.25382813 28.00933594 69.13265625 29.01867187 69.0078125 30.05859375 C67.21172895 45.69623421 66.78379519 61.41709013 66.45703125 77.140625 C66.43612741 78.10586342 66.41522358 79.07110184 66.39368629 80.0655899 C66.01487316 97.8919927 65.89557866 115.71695269 65.82421875 133.546875 C65.81225576 136.19950427 65.8001397 138.85213286 65.78787231 141.50476074 C65.77575753 144.18025654 65.76381993 146.85575309 65.75195312 149.53125 C65.74899034 150.19566133 65.74602756 150.86007265 65.742975 151.54461765 C65.70995758 159.04472105 65.68434432 166.54475089 65.67407227 174.04492188 C65.66472674 180.80248963 65.63454678 187.55973363 65.59275246 194.31717682 C65.58058527 196.84774651 65.5752945 199.3783605 65.57755089 201.90895844 C65.59027261 220.75464931 64.39038418 237.79971242 56 255 C55.58234375 255.90878906 55.1646875 256.81757812 54.734375 257.75390625 C47.1794405 273.01574232 33.61588633 284.56992916 18 291 C-0.36314192 296.84798943 -20.72876814 297.13290004 -38.375 288.875 C-53.88044078 280.45272648 -63.43662674 267.28741996 -68.74609375 250.6640625 C-69.32852368 248.43877848 -69.7038423 246.28079888 -70 244 C-70.13019531 243.12214844 -70.26039063 242.24429688 -70.39453125 241.33984375 C-71.51700409 227.204296 -61.46155644 213.889391 -52.9140625 203.453125 C-45.83627353 195.2577904 -38.05596162 188.2340891 -28 184 C-27.01 184 -26.02 184 -25 184 C-25.09087891 185.25876953 -25.09087891 185.25876953 -25.18359375 186.54296875 C-25.47281107 190.69434966 -25.7392542 194.84675251 -26 199 C-26.05333496 199.81887695 -26.10666992 200.63775391 -26.16162109 201.48144531 C-28.63056653 236.77387525 -28.63056653 236.77387525 -15.625 268.5 C-12.00772539 272.29354011 -9.19434556 273.86519276 -3.87109375 274.08984375 C1.4161911 273.88407801 4.71285623 272.47895503 8.50390625 268.79296875 C16.30462697 259.44432434 18.16509695 246.00044117 18.12698364 234.25170898 C18.12932363 233.12776844 18.12932363 233.12776844 18.13171089 231.98112202 C18.13567911 229.48609221 18.13254728 226.99112394 18.12939453 224.49609375 C18.13075061 222.69988978 18.1325317 220.90368608 18.13470459 219.10748291 C18.13925958 214.23460075 18.1374959 209.3617398 18.1343255 204.48885727 C18.13178569 199.36667577 18.13414453 194.24449603 18.13571167 189.12231445 C18.13753126 180.50406572 18.1351353 171.88582555 18.13037109 163.26757812 C18.12495651 153.35960922 18.12667145 143.45166098 18.1321975 133.54369259 C18.13676781 125.00228418 18.13735935 116.46088193 18.13475883 107.91947269 C18.13321388 102.83440374 18.13295206 97.74934442 18.13629532 92.66427612 C18.20950691 67.51826243 18.20950691 67.51826243 17.59326172 42.3828125 C17.55977694 41.52245895 17.52629215 40.66210541 17.49179268 39.77568054 C16.65384987 22.98755054 10.85336036 12.66225375 0 0 Z " fill="#000000" transform="translate(734,380)"/>
<path d="M0 0 C22.11 0 44.22 0 67 0 C66.01 3.3 65.02 6.6 64 10 C59.84082924 24.75691546 58.84168312 39.57521114 58.10522461 54.8447876 C58.03250928 56.33414434 57.95679697 57.8233567 57.87866211 59.31243896 C56.88756837 78.28097644 56.6198133 97.26039682 56.375 116.25 C56.35842661 117.50585026 56.35842661 117.50585026 56.3415184 118.78707123 C51.78681532 204.12614815 51.78681532 204.12614815 66 287 C66.33 288.32 66.66 289.64 67 291 C44.89 291 22.78 291 0 291 C1.98 285.06 3.96 279.12 6 273 C7.0010644 266.97626209 7.0010644 266.97626209 7.63671875 260.97265625 C7.6939209 260.20066895 7.75112305 259.42868164 7.81005859 258.63330078 C7.87273926 257.76431152 7.93541992 256.89532227 8 256 C8.0820166 254.96472168 8.1640332 253.92944336 8.24853516 252.86279297 C10.59060163 223.22615716 11.16739422 193.66806881 11.13037109 163.9543457 C11.12473799 159.40078531 11.1280263 154.84728423 11.13381004 150.29372597 C11.1545627 130.9884868 11.0056433 111.69472244 10.546875 92.39453125 C10.526926 91.53898588 10.50697701 90.68344051 10.48642349 89.80196953 C9.99452491 69.20160583 9.28418682 48.52013166 6.6875 28.0625 C6.54755615 26.90379395 6.54755615 26.90379395 6.40478516 25.72167969 C5.13486271 16.84160163 2.44388784 8.79799621 0 0 Z " fill="#000000" transform="translate(1441,380)"/>
<path d="M0 0 C22.11 0 44.22 0 67 0 C65.02 6.93 63.04 13.86 61 21 C59.17287548 31.78276175 58.46199151 42.53100443 57.9375 53.4375 C57.89675354 54.25855225 57.85600708 55.07960449 57.81402588 55.92553711 C54.42488061 124.68005213 51.7323461 196.49044486 60.3125 264.9375 C60.4057959 265.73414063 60.4990918 266.53078125 60.59521484 267.3515625 C61.76438835 275.71020323 64.39038835 282.64924273 67 291 C44.89 291 22.78 291 0 291 C0.99 288.03 1.98 285.06 3 282 C5.8550523 273.24419373 6.86846404 264.50904745 7.625 255.375 C7.75131244 253.92622778 7.87810688 252.47749751 8.00537109 251.02880859 C8.35322412 247.0204348 8.67966619 243.01066588 9 239 C9.10441406 237.71899414 9.10441406 237.71899414 9.2109375 236.41210938 C9.58882169 231.61208043 9.8149452 226.81049496 10 222 C10.04366699 220.96665527 10.08733398 219.93331055 10.13232422 218.86865234 C17.02428727 111.97145622 17.02428727 111.97145622 2 7 C1.34 4.69 0.68 2.38 0 0 Z " fill="#000000" transform="translate(855,380)"/>
<path d="M0 0 C2.5625 0.5 2.5625 0.5 4.12231445 2.61791992 C5.70935344 5.79388113 6.45376072 8.63746882 7.16796875 12.11328125 C7.42900391 13.36044922 7.69003906 14.60761719 7.95898438 15.89257812 C8.22001953 17.18615234 8.48105469 18.47972656 8.75 19.8125 C9.0245344 21.13884939 9.29991672 22.46502357 9.57617188 23.79101562 C10.24663762 27.02571878 10.90841613 30.26195162 11.5625 33.5 C19.74102098 35.6040288 27.92675358 37.45568992 36.21875 39.04882812 C37.01539063 39.20931641 37.81203125 39.36980469 38.6328125 39.53515625 C39.34195801 39.6731665 40.05110352 39.81117676 40.78173828 39.95336914 C42.5625 40.5 42.5625 40.5 44.5625 42.5 C45 44.9375 45 44.9375 44.5625 47.5 C40.88845972 50.21087231 37.38305221 51.19440708 32.94921875 52.10546875 C31.70205078 52.36650391 30.45488281 52.62753906 29.16992188 52.89648438 C27.87634766 53.15751953 26.58277344 53.41855469 25.25 53.6875 C23.92365061 53.9620344 22.59747643 54.23741672 21.27148438 54.51367188 C18.03678122 55.18413762 14.80054838 55.84591613 11.5625 56.5 C11.36092285 57.4286084 11.1593457 58.3572168 10.95166016 59.31396484 C10.20089552 62.75558034 9.44353768 66.19560482 8.68164062 69.63476562 C8.35313233 71.12408981 8.02727 72.61400019 7.70410156 74.10449219 C7.23935775 76.24573513 6.76516618 78.38469568 6.2890625 80.5234375 C6.00627441 81.81169434 5.72348633 83.09995117 5.43212891 84.42724609 C4.5625 87.5 4.5625 87.5 2.5625 89.5 C0.0625 89.75 0.0625 89.75 -2.4375 89.5 C-5.11079987 86.82670013 -5.18213963 84.73060478 -5.91015625 81.03125 C-6.16990234 79.73832031 -6.42964844 78.44539063 -6.69726562 77.11328125 C-6.96527869 75.74227245 -7.23285176 74.37117758 -7.5 73 C-8.0286865 70.32212229 -8.56259896 67.64537073 -9.09765625 64.96875 C-9.33105713 63.77701172 -9.56445801 62.58527344 -9.80493164 61.35742188 C-10.29991614 58.57240373 -10.29991614 58.57240373 -11.4375 56.5 C-13.5082825 55.78102062 -13.5082825 55.78102062 -16.03125 55.28125 C-16.98 55.07113281 -17.92875 54.86101562 -18.90625 54.64453125 C-19.9065625 54.43183594 -20.906875 54.21914063 -21.9375 54 C-22.906875 53.78730469 -23.87625 53.57460938 -24.875 53.35546875 C-30.47716769 52.12790542 -30.47716769 52.12790542 -36.09375 50.96875 C-36.898125 50.80375 -37.7025 50.63875 -38.53125 50.46875 C-39.59375977 50.25895508 -39.59375977 50.25895508 -40.67773438 50.04492188 C-42.4375 49.5 -42.4375 49.5 -44.4375 47.5 C-44.6875 45 -44.6875 45 -44.4375 42.5 C-41.76791238 39.83041238 -39.70061832 39.77405363 -36.00390625 39.0625 C-34.71548828 38.80726563 -33.42707031 38.55203125 -32.09960938 38.2890625 C-30.73322642 38.02524536 -29.36668783 37.76223313 -28 37.5 C-25.33295669 36.98692434 -22.66823794 36.46477404 -20.00390625 35.9375 C-18.22415405 35.59525391 -18.22415405 35.59525391 -16.40844727 35.24609375 C-13.27946136 34.63682728 -13.27946136 34.63682728 -10.4375 32.5 C-9.49294064 29.56163924 -9.49294064 29.56163924 -8.90234375 26.06640625 C-8.65033203 24.77798828 -8.39832031 23.48957031 -8.13867188 22.16210938 C-7.88320436 20.79574279 -7.62865687 19.42920388 -7.375 18.0625 C-6.8717241 15.39535943 -6.35780707 12.73078824 -5.83984375 10.06640625 C-5.61804443 8.87990479 -5.39624512 7.69340332 -5.16772461 6.47094727 C-3.76717428 0.7727537 -3.76717428 0.7727537 0 0 Z " fill="#000000" transform="translate(892.4375,209.5)"/>
<path d="M0 0 C1.8984375 0.65625 1.8984375 0.65625 4 2 C4.9765625 4.46875 4.9765625 4.46875 5.625 7.5 C5.86089844 8.5725 6.09679688 9.645 6.33984375 10.75 C6.55769531 11.8225 6.77554687 12.895 7 14 C7.20753906 14.94875 7.41507813 15.8975 7.62890625 16.875 C8.44803646 20.72433919 9 24.03810358 9 28 C10.16571533 28.21148682 10.16571533 28.21148682 11.35498047 28.42724609 C14.86319093 29.06839637 18.369063 29.7215374 21.875 30.375 C23.70998047 30.70757812 23.70998047 30.70757812 25.58203125 31.046875 C26.74863281 31.26601562 27.91523437 31.48515625 29.1171875 31.7109375 C30.73536377 32.00943604 30.73536377 32.00943604 32.38623047 32.31396484 C35 33 35 33 37 35 C36.625 37.625 36.625 37.625 36 40 C30.64176863 41.97595908 25.21476676 43.04851139 19.625 44.125 C18.69816406 44.30675781 17.77132813 44.48851562 16.81640625 44.67578125 C14.5449332 45.12070896 12.27281954 45.56201206 10 46 C9.83918945 46.77714355 9.67837891 47.55428711 9.51269531 48.35498047 C8.77599558 51.86560165 8.01337376 55.37008684 7.25 58.875 C6.87101562 60.70998047 6.87101562 60.70998047 6.484375 62.58203125 C6.09765625 64.33193359 6.09765625 64.33193359 5.703125 66.1171875 C5.47270508 67.19597168 5.24228516 68.27475586 5.00488281 69.38623047 C4 72 4 72 1.89355469 73.36767578 C0.95624512 73.68067627 0.95624512 73.68067627 0 74 C-3 72 -3 72 -3.78369141 69.6015625 C-3.97108887 68.61929688 -4.15848633 67.63703125 -4.3515625 66.625 C-4.56296875 65.55765625 -4.774375 64.4903125 -4.9921875 63.390625 C-5.30542969 61.71226563 -5.30542969 61.71226563 -5.625 60 C-6.05250146 57.79124244 -6.48208471 55.58288647 -6.9140625 53.375 C-7.0992041 52.39273438 -7.2843457 51.41046875 -7.47509766 50.3984375 C-7.89667542 48.00193875 -7.89667542 48.00193875 -9 46 C-11.36699617 45.27936706 -11.36699617 45.27936706 -14.2421875 44.78125 C-15.30824219 44.57113281 -16.37429688 44.36101562 -17.47265625 44.14453125 C-18.59542969 43.93183594 -19.71820312 43.71914062 -20.875 43.5 C-23.08190405 43.07902986 -25.28770091 42.65220152 -27.4921875 42.21875 C-28.47558105 42.03248047 -29.45897461 41.84621094 -30.47216797 41.65429688 C-33 41 -33 41 -36 39 C-35.67 37.35 -35.34 35.7 -35 34 C-26.3748114 31.77261613 -17.71976109 29.81876674 -9 28 C-7.01600441 20.31729366 -5.29072544 12.63926936 -3.84375 4.8359375 C-3 2 -3 2 0 0 Z " fill="#000000" transform="translate(1077,51)"/>
<path d="M0 0 C1.32 0.33 2.64 0.66 4 1 C5.32 6.61 6.64 12.22 8 18 C16.415 19.98 16.415 19.98 25 22 C25.495 23.98 25.495 23.98 26 26 C20.05567942 28.1079151 14.1778387 29.72520789 8 31 C6.68 36.61 5.36 42.22 4 48 C1.525 48.495 1.525 48.495 -1 49 C-2.32 43.06 -3.64 37.12 -5 31 C-13.91 29.02 -13.91 29.02 -23 27 C-22.67 25.35 -22.34 23.7 -22 22 C-16.39 20.68 -10.78 19.36 -5 18 C-3.7246621 12.4512258 -3.7246621 12.4512258 -2.45727539 6.90063477 C-1.11111111 1.11111111 -1.11111111 1.11111111 0 0 Z " fill="#000000" transform="translate(1126,31)"/>
</svg>
